<mxfile host="65bd71144e">
    <diagram id="PfVElwga9vIIvByBWYMp" name="Page-1">
        <mxGraphModel dx="5068" dy="1035" grid="1" gridSize="10" guides="1" tooltips="1" connect="1" arrows="1" fold="1" page="1" pageScale="1" pageWidth="827" pageHeight="1169" math="0" shadow="0">
            <root>
                <mxCell id="0"/>
                <mxCell id="1" parent="0"/>
                <mxCell id="2" value="bookId" style="ellipse;whiteSpace=wrap;html=1;align=center;fontStyle=4;" vertex="1" parent="1">
                    <mxGeometry x="-2850" y="1210" width="100" height="40" as="geometry"/>
                </mxCell>
                <mxCell id="3" value="Book" style="whiteSpace=wrap;html=1;align=center;" vertex="1" parent="1">
                    <mxGeometry x="-2830" y="1380" width="100" height="40" as="geometry"/>
                </mxCell>
                <mxCell id="4" value="Title" style="ellipse;whiteSpace=wrap;html=1;align=center;" vertex="1" parent="1">
                    <mxGeometry x="-2920" y="1250.54" width="100" height="40" as="geometry"/>
                </mxCell>
                <mxCell id="5" value="" style="endArrow=none;html=1;rounded=0;exitX=0.5;exitY=1;exitDx=0;exitDy=0;entryX=0.5;entryY=0;entryDx=0;entryDy=0;" edge="1" parent="1" source="2" target="3">
                    <mxGeometry relative="1" as="geometry">
                        <mxPoint x="-2658" y="1420" as="sourcePoint"/>
                        <mxPoint x="-2498" y="1420" as="targetPoint"/>
                    </mxGeometry>
                </mxCell>
                <mxCell id="6" value="" style="endArrow=none;html=1;rounded=0;entryX=0.5;entryY=0;entryDx=0;entryDy=0;exitX=0.5;exitY=1;exitDx=0;exitDy=0;" edge="1" parent="1" source="4" target="3">
                    <mxGeometry relative="1" as="geometry">
                        <mxPoint x="-2668" y="1320" as="sourcePoint"/>
                        <mxPoint x="-2770" y="1390" as="targetPoint"/>
                    </mxGeometry>
                </mxCell>
                <mxCell id="16" value="Genre" style="ellipse;whiteSpace=wrap;html=1;align=center;" vertex="1" parent="1">
                    <mxGeometry x="-2990" y="1296.3600000000001" width="100" height="40" as="geometry"/>
                </mxCell>
                <mxCell id="17" value="" style="endArrow=none;html=1;rounded=0;entryX=0.5;entryY=0;entryDx=0;entryDy=0;exitX=0.99;exitY=0.606;exitDx=0;exitDy=0;exitPerimeter=0;" edge="1" parent="1" source="16" target="3">
                    <mxGeometry relative="1" as="geometry">
                        <mxPoint x="-2860" y="1320" as="sourcePoint"/>
                        <mxPoint x="-2770" y="1390" as="targetPoint"/>
                    </mxGeometry>
                </mxCell>
                <mxCell id="29" value="has" style="shape=rhombus;perimeter=rhombusPerimeter;whiteSpace=wrap;html=1;align=center;" vertex="1" parent="1">
                    <mxGeometry x="-2540" y="1370" width="120" height="60" as="geometry"/>
                </mxCell>
                <mxCell id="30" value="N" style="endArrow=none;html=1;rounded=0;exitX=1;exitY=0.5;exitDx=0;exitDy=0;entryX=0;entryY=0.5;entryDx=0;entryDy=0;" edge="1" parent="1" source="3" target="29">
                    <mxGeometry x="0.6842" y="20" relative="1" as="geometry">
                        <mxPoint x="-2630" y="1420" as="sourcePoint"/>
                        <mxPoint x="-2470" y="1420" as="targetPoint"/>
                        <mxPoint as="offset"/>
                    </mxGeometry>
                </mxCell>
                <mxCell id="39" value="UserId" style="ellipse;whiteSpace=wrap;html=1;align=center;fontStyle=4;" vertex="1" parent="1">
                    <mxGeometry x="-1370" y="690" width="100" height="40" as="geometry"/>
                </mxCell>
                <mxCell id="40" value="User" style="whiteSpace=wrap;html=1;align=center;" vertex="1" parent="1">
                    <mxGeometry x="-1400" y="870" width="100" height="40" as="geometry"/>
                </mxCell>
                <mxCell id="41" value="Name" style="ellipse;whiteSpace=wrap;html=1;align=center;" vertex="1" parent="1">
                    <mxGeometry x="-1440" y="740" width="100" height="40" as="geometry"/>
                </mxCell>
                <mxCell id="42" value="" style="endArrow=none;html=1;rounded=0;exitX=0.5;exitY=1;exitDx=0;exitDy=0;entryX=0.5;entryY=0;entryDx=0;entryDy=0;" edge="1" parent="1" source="39" target="40">
                    <mxGeometry relative="1" as="geometry">
                        <mxPoint x="-1228" y="910" as="sourcePoint"/>
                        <mxPoint x="-1068" y="910" as="targetPoint"/>
                    </mxGeometry>
                </mxCell>
                <mxCell id="43" value="" style="endArrow=none;html=1;rounded=0;entryX=0.5;entryY=0;entryDx=0;entryDy=0;exitX=0.5;exitY=1;exitDx=0;exitDy=0;" edge="1" parent="1" source="41" target="40">
                    <mxGeometry relative="1" as="geometry">
                        <mxPoint x="-1238" y="810" as="sourcePoint"/>
                        <mxPoint x="-1340" y="880" as="targetPoint"/>
                    </mxGeometry>
                </mxCell>
                <mxCell id="46" value="HashedPassword" style="ellipse;whiteSpace=wrap;html=1;align=center;" vertex="1" parent="1">
                    <mxGeometry x="-1540" y="710" width="100" height="40" as="geometry"/>
                </mxCell>
                <mxCell id="47" value="" style="endArrow=none;html=1;rounded=0;entryX=0.5;entryY=0;entryDx=0;entryDy=0;exitX=0.5;exitY=1;exitDx=0;exitDy=0;" edge="1" parent="1" source="46" target="40">
                    <mxGeometry relative="1" as="geometry">
                        <mxPoint x="-1430" y="810" as="sourcePoint"/>
                        <mxPoint x="-1340" y="880" as="targetPoint"/>
                    </mxGeometry>
                </mxCell>
                <mxCell id="49" value="member of" style="shape=rhombus;perimeter=rhombusPerimeter;whiteSpace=wrap;html=1;align=center;" vertex="1" parent="1">
                    <mxGeometry x="-1410" y="1190.54" width="120" height="60" as="geometry"/>
                </mxCell>
                <mxCell id="50" value="BookClub" style="whiteSpace=wrap;html=1;align=center;" vertex="1" parent="1">
                    <mxGeometry x="-1400" y="1426.3600000000001" width="100" height="40" as="geometry"/>
                </mxCell>
                <mxCell id="51" value="ReadingChallange" style="whiteSpace=wrap;html=1;align=center;" vertex="1" parent="1">
                    <mxGeometry x="-1950" y="870" width="100" height="40" as="geometry"/>
                </mxCell>
                <mxCell id="56" value="participate in" style="shape=rhombus;perimeter=rhombusPerimeter;whiteSpace=wrap;html=1;align=center;" vertex="1" parent="1">
                    <mxGeometry x="-1670" y="860" width="120" height="60" as="geometry"/>
                </mxCell>
                <mxCell id="57" value="ForumThread" style="whiteSpace=wrap;html=1;align=center;" vertex="1" parent="1">
                    <mxGeometry x="-850" y="1044.18" width="100" height="40" as="geometry"/>
                </mxCell>
                <mxCell id="58" value="creat" style="shape=rhombus;perimeter=rhombusPerimeter;whiteSpace=wrap;html=1;align=center;" vertex="1" parent="1">
                    <mxGeometry x="-1110" y="960" width="120" height="60" as="geometry"/>
                </mxCell>
                <mxCell id="59" value="writes" style="shape=rhombus;perimeter=rhombusPerimeter;whiteSpace=wrap;html=1;align=center;" vertex="1" parent="1">
                    <mxGeometry x="-1110" y="740" width="120" height="60" as="geometry"/>
                </mxCell>
                <mxCell id="60" value="ForumPost" style="whiteSpace=wrap;html=1;align=center;" vertex="1" parent="1">
                    <mxGeometry x="-850" y="660" width="100" height="40" as="geometry"/>
                </mxCell>
                <mxCell id="65" value="belong to" style="shape=rhombus;perimeter=rhombusPerimeter;whiteSpace=wrap;html=1;align=center;" vertex="1" parent="1">
                    <mxGeometry x="-860" y="850" width="120" height="60" as="geometry"/>
                </mxCell>
                <mxCell id="69" value="" style="endArrow=none;html=1;rounded=0;exitX=0.5;exitY=1;exitDx=0;exitDy=0;" edge="1" parent="1" source="40" target="49">
                    <mxGeometry relative="1" as="geometry">
                        <mxPoint x="-1370" y="1080" as="sourcePoint"/>
                        <mxPoint x="-1210" y="1080" as="targetPoint"/>
                    </mxGeometry>
                </mxCell>
                <mxCell id="70" value="N" style="resizable=0;html=1;align=right;verticalAlign=bottom;" connectable="0" vertex="1" parent="69">
                    <mxGeometry x="1" relative="1" as="geometry">
                        <mxPoint x="-10" y="-40" as="offset"/>
                    </mxGeometry>
                </mxCell>
                <mxCell id="72" value="" style="endArrow=none;html=1;rounded=0;entryX=0.5;entryY=0;entryDx=0;entryDy=0;exitX=0.5;exitY=1;exitDx=0;exitDy=0;" edge="1" parent="1" source="49" target="50">
                    <mxGeometry relative="1" as="geometry">
                        <mxPoint x="-1350" y="1256.3600000000001" as="sourcePoint"/>
                        <mxPoint x="-1340" y="1200.54" as="targetPoint"/>
                    </mxGeometry>
                </mxCell>
                <mxCell id="73" value="M" style="resizable=0;html=1;align=right;verticalAlign=bottom;" connectable="0" vertex="1" parent="72">
                    <mxGeometry x="1" relative="1" as="geometry">
                        <mxPoint x="-10" y="-100" as="offset"/>
                    </mxGeometry>
                </mxCell>
                <mxCell id="74" value="" style="endArrow=none;html=1;rounded=0;exitX=1;exitY=0.5;exitDx=0;exitDy=0;entryX=0;entryY=0.5;entryDx=0;entryDy=0;" edge="1" parent="1" source="56" target="40">
                    <mxGeometry relative="1" as="geometry">
                        <mxPoint x="-1450" y="1070" as="sourcePoint"/>
                        <mxPoint x="-1290" y="1070" as="targetPoint"/>
                    </mxGeometry>
                </mxCell>
                <mxCell id="75" value="M" style="resizable=0;html=1;align=right;verticalAlign=bottom;" connectable="0" vertex="1" parent="74">
                    <mxGeometry x="1" relative="1" as="geometry">
                        <mxPoint x="-111" y="30" as="offset"/>
                    </mxGeometry>
                </mxCell>
                <mxCell id="76" value="" style="endArrow=none;html=1;rounded=0;exitX=1;exitY=0.5;exitDx=0;exitDy=0;entryX=0;entryY=0.5;entryDx=0;entryDy=0;" edge="1" parent="1" source="51" target="56">
                    <mxGeometry relative="1" as="geometry">
                        <mxPoint x="-1570" y="975" as="sourcePoint"/>
                        <mxPoint x="-1390" y="910" as="targetPoint"/>
                    </mxGeometry>
                </mxCell>
                <mxCell id="80" value="" style="endArrow=none;html=1;rounded=0;exitX=1;exitY=0.75;exitDx=0;exitDy=0;entryX=0;entryY=0;entryDx=0;entryDy=0;" edge="1" parent="1" source="40" target="58">
                    <mxGeometry relative="1" as="geometry">
                        <mxPoint x="-1200" y="1100" as="sourcePoint"/>
                        <mxPoint x="-1040" y="1100" as="targetPoint"/>
                    </mxGeometry>
                </mxCell>
                <mxCell id="81" value="1" style="resizable=0;html=1;align=right;verticalAlign=bottom;" connectable="0" vertex="1" parent="80">
                    <mxGeometry x="1" relative="1" as="geometry">
                        <mxPoint x="-50" y="-24" as="offset"/>
                    </mxGeometry>
                </mxCell>
                <mxCell id="82" value="" style="endArrow=none;html=1;rounded=0;exitX=1;exitY=1;exitDx=0;exitDy=0;entryX=0;entryY=0.5;entryDx=0;entryDy=0;" edge="1" parent="1" source="58" target="57">
                    <mxGeometry relative="1" as="geometry">
                        <mxPoint x="-1290" y="910" as="sourcePoint"/>
                        <mxPoint x="-1070" y="985" as="targetPoint"/>
                    </mxGeometry>
                </mxCell>
                <mxCell id="83" value="N" style="resizable=0;html=1;align=right;verticalAlign=bottom;" connectable="0" vertex="1" parent="82">
                    <mxGeometry x="1" relative="1" as="geometry">
                        <mxPoint x="-20" y="-14" as="offset"/>
                    </mxGeometry>
                </mxCell>
                <mxCell id="85" value="" style="endArrow=none;html=1;rounded=0;exitX=1;exitY=0.5;exitDx=0;exitDy=0;entryX=0;entryY=1;entryDx=0;entryDy=0;" edge="1" parent="1" source="40" target="59">
                    <mxGeometry relative="1" as="geometry">
                        <mxPoint x="-1290" y="910" as="sourcePoint"/>
                        <mxPoint x="-1070" y="985" as="targetPoint"/>
                    </mxGeometry>
                </mxCell>
                <mxCell id="86" value="1" style="resizable=0;html=1;align=right;verticalAlign=bottom;" connectable="0" vertex="1" parent="85">
                    <mxGeometry x="1" relative="1" as="geometry">
                        <mxPoint x="-50" y="15" as="offset"/>
                    </mxGeometry>
                </mxCell>
                <mxCell id="87" value="" style="endArrow=none;html=1;rounded=0;exitX=1;exitY=0;exitDx=0;exitDy=0;entryX=0;entryY=0.5;entryDx=0;entryDy=0;" edge="1" parent="1" source="59" target="60">
                    <mxGeometry relative="1" as="geometry">
                        <mxPoint x="-1290" y="900" as="sourcePoint"/>
                        <mxPoint x="-1070" y="795" as="targetPoint"/>
                    </mxGeometry>
                </mxCell>
                <mxCell id="88" value="N" style="resizable=0;html=1;align=right;verticalAlign=bottom;" connectable="0" vertex="1" parent="87">
                    <mxGeometry x="1" relative="1" as="geometry">
                        <mxPoint x="-110" y="40" as="offset"/>
                    </mxGeometry>
                </mxCell>
                <mxCell id="89" value="" style="endArrow=none;html=1;rounded=0;exitX=0.5;exitY=1;exitDx=0;exitDy=0;entryX=0.5;entryY=0;entryDx=0;entryDy=0;" edge="1" parent="1" source="60" target="65">
                    <mxGeometry relative="1" as="geometry">
                        <mxPoint x="-1180" y="930" as="sourcePoint"/>
                        <mxPoint x="-1020" y="930" as="targetPoint"/>
                    </mxGeometry>
                </mxCell>
                <mxCell id="90" value="N" style="resizable=0;html=1;align=right;verticalAlign=bottom;" connectable="0" vertex="1" parent="89">
                    <mxGeometry x="1" relative="1" as="geometry">
                        <mxPoint x="-10" y="-20" as="offset"/>
                    </mxGeometry>
                </mxCell>
                <mxCell id="91" value="" style="endArrow=none;html=1;rounded=0;exitX=0.5;exitY=0;exitDx=0;exitDy=0;entryX=0.5;entryY=1;entryDx=0;entryDy=0;" edge="1" parent="1" source="57" target="65">
                    <mxGeometry relative="1" as="geometry">
                        <mxPoint x="-790" y="710" as="sourcePoint"/>
                        <mxPoint x="-790" y="860" as="targetPoint"/>
                    </mxGeometry>
                </mxCell>
                <mxCell id="92" value="1" style="resizable=0;html=1;align=right;verticalAlign=bottom;" connectable="0" vertex="1" parent="91">
                    <mxGeometry x="1" relative="1" as="geometry">
                        <mxPoint x="-10" y="41" as="offset"/>
                    </mxGeometry>
                </mxCell>
                <mxCell id="94" value="SSR" style="ellipse;whiteSpace=wrap;html=1;align=center;" vertex="1" parent="1">
                    <mxGeometry x="-1320" y="750" width="100" height="40" as="geometry"/>
                </mxCell>
                <mxCell id="95" value="" style="endArrow=none;html=1;rounded=0;exitX=0.366;exitY=1;exitDx=0;exitDy=0;exitPerimeter=0;" edge="1" parent="1" source="94">
                    <mxGeometry relative="1" as="geometry">
                        <mxPoint x="-1118" y="820" as="sourcePoint"/>
                        <mxPoint x="-1350" y="870" as="targetPoint"/>
                    </mxGeometry>
                </mxCell>
                <mxCell id="96" value="Email" style="ellipse;whiteSpace=wrap;html=1;align=center;" vertex="1" parent="1">
                    <mxGeometry x="-1560" y="771" width="100" height="40" as="geometry"/>
                </mxCell>
                <mxCell id="97" value="" style="endArrow=none;html=1;rounded=0;exitX=0.5;exitY=1;exitDx=0;exitDy=0;entryX=0.5;entryY=0;entryDx=0;entryDy=0;" edge="1" parent="1" source="96" target="40">
                    <mxGeometry relative="1" as="geometry">
                        <mxPoint x="-1228" y="820" as="sourcePoint"/>
                        <mxPoint x="-1420" y="850" as="targetPoint"/>
                    </mxGeometry>
                </mxCell>
                <mxCell id="98" value="UserName" style="ellipse;whiteSpace=wrap;html=1;align=center;" vertex="1" parent="1">
                    <mxGeometry x="-1230" y="720" width="100" height="40" as="geometry"/>
                </mxCell>
                <mxCell id="99" value="" style="endArrow=none;html=1;rounded=0;entryX=0.5;entryY=0;entryDx=0;entryDy=0;exitX=0.625;exitY=1.028;exitDx=0;exitDy=0;exitPerimeter=0;" edge="1" parent="1" source="98" target="40">
                    <mxGeometry relative="1" as="geometry">
                        <mxPoint x="-1228" y="820" as="sourcePoint"/>
                        <mxPoint x="-1340" y="879.9999999999999" as="targetPoint"/>
                    </mxGeometry>
                </mxCell>
                <mxCell id="100" value="ProfileImg" style="ellipse;whiteSpace=wrap;html=1;align=center;" vertex="1" parent="1">
                    <mxGeometry x="-1660" y="760" width="100" height="40" as="geometry"/>
                </mxCell>
                <mxCell id="101" value="" style="endArrow=none;html=1;rounded=0;exitX=0.5;exitY=1;exitDx=0;exitDy=0;entryX=0.25;entryY=0;entryDx=0;entryDy=0;" edge="1" parent="1" source="100" target="40">
                    <mxGeometry relative="1" as="geometry">
                        <mxPoint x="-1318" y="829" as="sourcePoint"/>
                        <mxPoint x="-1440" y="879" as="targetPoint"/>
                    </mxGeometry>
                </mxCell>
                <mxCell id="102" value="ChallangeId" style="ellipse;whiteSpace=wrap;html=1;align=center;fontStyle=4;" vertex="1" parent="1">
                    <mxGeometry x="-1930" y="690" width="100" height="40" as="geometry"/>
                </mxCell>
                <mxCell id="103" value="StartDate" style="ellipse;whiteSpace=wrap;html=1;align=center;" vertex="1" parent="1">
                    <mxGeometry x="-2000" y="740" width="100" height="40" as="geometry"/>
                </mxCell>
                <mxCell id="104" value="" style="endArrow=none;html=1;rounded=0;exitX=0.5;exitY=1;exitDx=0;exitDy=0;entryX=0.5;entryY=0;entryDx=0;entryDy=0;" edge="1" parent="1" source="102">
                    <mxGeometry relative="1" as="geometry">
                        <mxPoint x="-1788" y="910" as="sourcePoint"/>
                        <mxPoint x="-1910" y="870.0000000000001" as="targetPoint"/>
                    </mxGeometry>
                </mxCell>
                <mxCell id="105" value="" style="endArrow=none;html=1;rounded=0;entryX=0.5;entryY=0;entryDx=0;entryDy=0;exitX=0.5;exitY=1;exitDx=0;exitDy=0;" edge="1" parent="1" source="103">
                    <mxGeometry relative="1" as="geometry">
                        <mxPoint x="-1798" y="810" as="sourcePoint"/>
                        <mxPoint x="-1910" y="870.0000000000001" as="targetPoint"/>
                    </mxGeometry>
                </mxCell>
                <mxCell id="106" value="EndDate" style="ellipse;whiteSpace=wrap;html=1;align=center;" vertex="1" parent="1">
                    <mxGeometry x="-2100" y="710" width="100" height="40" as="geometry"/>
                </mxCell>
                <mxCell id="107" value="" style="endArrow=none;html=1;rounded=0;entryX=0.5;entryY=0;entryDx=0;entryDy=0;exitX=0.5;exitY=1;exitDx=0;exitDy=0;" edge="1" parent="1" source="106">
                    <mxGeometry relative="1" as="geometry">
                        <mxPoint x="-1990" y="810" as="sourcePoint"/>
                        <mxPoint x="-1910" y="870.0000000000001" as="targetPoint"/>
                    </mxGeometry>
                </mxCell>
                <mxCell id="109" value="Description" style="ellipse;whiteSpace=wrap;html=1;align=center;" vertex="1" parent="1">
                    <mxGeometry x="-1870" y="750" width="100" height="40" as="geometry"/>
                </mxCell>
                <mxCell id="110" value="" style="endArrow=none;html=1;rounded=0;exitX=0.366;exitY=1;exitDx=0;exitDy=0;exitPerimeter=0;" edge="1" parent="1" source="109">
                    <mxGeometry relative="1" as="geometry">
                        <mxPoint x="-1678" y="820" as="sourcePoint"/>
                        <mxPoint x="-1910" y="870.0000000000001" as="targetPoint"/>
                    </mxGeometry>
                </mxCell>
                <mxCell id="113" value="ChallangeName" style="ellipse;whiteSpace=wrap;html=1;align=center;" vertex="1" parent="1">
                    <mxGeometry x="-1780" y="720" width="100" height="40" as="geometry"/>
                </mxCell>
                <mxCell id="114" value="" style="endArrow=none;html=1;rounded=0;entryX=0.5;entryY=0;entryDx=0;entryDy=0;exitX=0.625;exitY=1.028;exitDx=0;exitDy=0;exitPerimeter=0;" edge="1" parent="1" source="113">
                    <mxGeometry relative="1" as="geometry">
                        <mxPoint x="-1788" y="820" as="sourcePoint"/>
                        <mxPoint x="-1910" y="870.0000000000001" as="targetPoint"/>
                    </mxGeometry>
                </mxCell>
                <mxCell id="130" value="BookClubId" style="ellipse;whiteSpace=wrap;html=1;align=center;fontStyle=4;" vertex="1" parent="1">
                    <mxGeometry x="-1260" y="1296.3600000000001" width="100" height="40" as="geometry"/>
                </mxCell>
                <mxCell id="132" value="" style="endArrow=none;html=1;rounded=0;exitX=0.5;exitY=1;exitDx=0;exitDy=0;entryX=0.5;entryY=0;entryDx=0;entryDy=0;" edge="1" parent="1" source="130">
                    <mxGeometry relative="1" as="geometry">
                        <mxPoint x="-1178" y="1496.36" as="sourcePoint"/>
                        <mxPoint x="-1300" y="1456.36" as="targetPoint"/>
                    </mxGeometry>
                </mxCell>
                <mxCell id="137" value="Description" style="ellipse;whiteSpace=wrap;html=1;align=center;" vertex="1" parent="1">
                    <mxGeometry x="-1210" y="1366.49" width="100" height="40" as="geometry"/>
                </mxCell>
                <mxCell id="138" value="" style="endArrow=none;html=1;rounded=0;exitX=0.366;exitY=1;exitDx=0;exitDy=0;exitPerimeter=0;" edge="1" parent="1" source="137">
                    <mxGeometry relative="1" as="geometry">
                        <mxPoint x="-1068" y="1406.3600000000001" as="sourcePoint"/>
                        <mxPoint x="-1300" y="1456.36" as="targetPoint"/>
                    </mxGeometry>
                </mxCell>
                <mxCell id="141" value="ClubName" style="ellipse;whiteSpace=wrap;html=1;align=center;" vertex="1" parent="1">
                    <mxGeometry x="-1060" y="1366.49" width="100" height="40" as="geometry"/>
                </mxCell>
                <mxCell id="142" value="" style="endArrow=none;html=1;rounded=0;entryX=0.5;entryY=0;entryDx=0;entryDy=0;exitX=0.625;exitY=1.028;exitDx=0;exitDy=0;exitPerimeter=0;" edge="1" parent="1" source="141">
                    <mxGeometry relative="1" as="geometry">
                        <mxPoint x="-1178" y="1406.3600000000001" as="sourcePoint"/>
                        <mxPoint x="-1300" y="1456.36" as="targetPoint"/>
                    </mxGeometry>
                </mxCell>
                <mxCell id="146" value="creater of" style="shape=rhombus;perimeter=rhombusPerimeter;whiteSpace=wrap;html=1;align=center;" vertex="1" parent="1">
                    <mxGeometry x="-1610" y="1190.54" width="120" height="60" as="geometry"/>
                </mxCell>
                <mxCell id="147" value="" style="endArrow=none;html=1;rounded=0;entryX=0.25;entryY=0;entryDx=0;entryDy=0;exitX=0.5;exitY=1;exitDx=0;exitDy=0;" edge="1" parent="1" source="146" target="50">
                    <mxGeometry relative="1" as="geometry">
                        <mxPoint x="-1480" y="1266.3600000000001" as="sourcePoint"/>
                        <mxPoint x="-1480" y="1436.3600000000001" as="targetPoint"/>
                    </mxGeometry>
                </mxCell>
                <mxCell id="148" value="N" style="resizable=0;html=1;align=right;verticalAlign=bottom;" connectable="0" vertex="1" parent="147">
                    <mxGeometry x="1" relative="1" as="geometry">
                        <mxPoint x="-115" y="-130" as="offset"/>
                    </mxGeometry>
                </mxCell>
                <mxCell id="149" value="" style="endArrow=none;html=1;rounded=0;exitX=0.25;exitY=1;exitDx=0;exitDy=0;entryX=0.5;entryY=0;entryDx=0;entryDy=0;" edge="1" parent="1" source="40" target="146">
                    <mxGeometry relative="1" as="geometry">
                        <mxPoint x="-1340" y="920" as="sourcePoint"/>
                        <mxPoint x="-1340" y="1084.1799999999998" as="targetPoint"/>
                    </mxGeometry>
                </mxCell>
                <mxCell id="150" value="1" style="resizable=0;html=1;align=right;verticalAlign=bottom;" connectable="0" vertex="1" parent="149">
                    <mxGeometry x="1" relative="1" as="geometry">
                        <mxPoint x="10" y="-30" as="offset"/>
                    </mxGeometry>
                </mxCell>
                <mxCell id="154" value="ForumThreadId" style="ellipse;whiteSpace=wrap;html=1;align=center;fontStyle=4;" vertex="1" parent="1">
                    <mxGeometry x="-710" y="920" width="100" height="40" as="geometry"/>
                </mxCell>
                <mxCell id="155" value="" style="endArrow=none;html=1;rounded=0;exitX=0.5;exitY=1;exitDx=0;exitDy=0;entryX=0.5;entryY=0;entryDx=0;entryDy=0;" edge="1" parent="1" source="154">
                    <mxGeometry relative="1" as="geometry">
                        <mxPoint x="-628" y="1114.18" as="sourcePoint"/>
                        <mxPoint x="-750" y="1074.18" as="targetPoint"/>
                    </mxGeometry>
                </mxCell>
                <mxCell id="156" value="Topic" style="ellipse;whiteSpace=wrap;html=1;align=center;" vertex="1" parent="1">
                    <mxGeometry x="-660" y="970" width="100" height="40" as="geometry"/>
                </mxCell>
                <mxCell id="157" value="" style="endArrow=none;html=1;rounded=0;exitX=0.366;exitY=1;exitDx=0;exitDy=0;exitPerimeter=0;" edge="1" parent="1" source="156">
                    <mxGeometry relative="1" as="geometry">
                        <mxPoint x="-518" y="1024.18" as="sourcePoint"/>
                        <mxPoint x="-750" y="1074.18" as="targetPoint"/>
                    </mxGeometry>
                </mxCell>
                <mxCell id="158" value="Created" style="ellipse;whiteSpace=wrap;html=1;align=center;" vertex="1" parent="1">
                    <mxGeometry x="-630" y="1020" width="100" height="40" as="geometry"/>
                </mxCell>
                <mxCell id="159" value="" style="endArrow=none;html=1;rounded=0;entryX=0.5;entryY=0;entryDx=0;entryDy=0;exitX=0.087;exitY=0.817;exitDx=0;exitDy=0;exitPerimeter=0;" edge="1" parent="1" source="158">
                    <mxGeometry relative="1" as="geometry">
                        <mxPoint x="-628" y="1024.18" as="sourcePoint"/>
                        <mxPoint x="-750" y="1074.18" as="targetPoint"/>
                    </mxGeometry>
                </mxCell>
                <mxCell id="161" value="" style="endArrow=none;html=1;rounded=0;exitX=-0.001;exitY=0.361;exitDx=0;exitDy=0;entryX=1;entryY=0.75;entryDx=0;entryDy=0;exitPerimeter=0;" edge="1" parent="1" source="166" target="57">
                    <mxGeometry relative="1" as="geometry">
                        <mxPoint x="-575.355339059327" y="1090.0378643762692" as="sourcePoint"/>
                        <mxPoint x="-690" y="1310" as="targetPoint"/>
                    </mxGeometry>
                </mxCell>
                <mxCell id="166" value="Title" style="ellipse;whiteSpace=wrap;html=1;align=center;" vertex="1" parent="1">
                    <mxGeometry x="-640" y="1074.1799999999998" width="100" height="40" as="geometry"/>
                </mxCell>
                <mxCell id="169" value="ForumPostId" style="ellipse;whiteSpace=wrap;html=1;align=center;fontStyle=4;" vertex="1" parent="1">
                    <mxGeometry x="-720" y="550" width="100" height="40" as="geometry"/>
                </mxCell>
                <mxCell id="170" value="" style="endArrow=none;html=1;rounded=0;exitX=0.5;exitY=1;exitDx=0;exitDy=0;entryX=0.5;entryY=0;entryDx=0;entryDy=0;" edge="1" parent="1" source="169">
                    <mxGeometry relative="1" as="geometry">
                        <mxPoint x="-628" y="730" as="sourcePoint"/>
                        <mxPoint x="-750.0000000000005" y="690" as="targetPoint"/>
                    </mxGeometry>
                </mxCell>
                <mxCell id="171" value="Content" style="ellipse;whiteSpace=wrap;html=1;align=center;" vertex="1" parent="1">
                    <mxGeometry x="-640" y="590" width="100" height="40" as="geometry"/>
                </mxCell>
                <mxCell id="172" value="" style="endArrow=none;html=1;rounded=0;exitX=0.366;exitY=1;exitDx=0;exitDy=0;exitPerimeter=0;" edge="1" parent="1" source="171">
                    <mxGeometry relative="1" as="geometry">
                        <mxPoint x="-518" y="640" as="sourcePoint"/>
                        <mxPoint x="-750.0000000000005" y="690" as="targetPoint"/>
                    </mxGeometry>
                </mxCell>
                <mxCell id="173" value="Created" style="ellipse;whiteSpace=wrap;html=1;align=center;" vertex="1" parent="1">
                    <mxGeometry x="-600" y="650" width="100" height="40" as="geometry"/>
                </mxCell>
                <mxCell id="174" value="" style="endArrow=none;html=1;rounded=0;entryX=0.5;entryY=0;entryDx=0;entryDy=0;exitX=0.107;exitY=0.831;exitDx=0;exitDy=0;exitPerimeter=0;" edge="1" parent="1" source="173">
                    <mxGeometry relative="1" as="geometry">
                        <mxPoint x="-628" y="640" as="sourcePoint"/>
                        <mxPoint x="-750.0000000000005" y="690" as="targetPoint"/>
                    </mxGeometry>
                </mxCell>
                <mxCell id="177" value="UserInformation" style="ellipse;whiteSpace=wrap;html=1;align=center;" vertex="1" parent="1">
                    <mxGeometry x="-1730" y="800" width="100" height="40" as="geometry"/>
                </mxCell>
                <mxCell id="178" value="" style="endArrow=none;html=1;rounded=0;exitX=1;exitY=1;exitDx=0;exitDy=0;entryX=0;entryY=0.25;entryDx=0;entryDy=0;" edge="1" parent="1" source="177" target="40">
                    <mxGeometry relative="1" as="geometry">
                        <mxPoint x="-1403" y="869" as="sourcePoint"/>
                        <mxPoint x="-1410" y="880" as="targetPoint"/>
                    </mxGeometry>
                </mxCell>
                <mxCell id="179" value="Ratings" style="whiteSpace=wrap;html=1;align=center;" vertex="1" parent="1">
                    <mxGeometry x="-2240" y="1380" width="100" height="40" as="geometry"/>
                </mxCell>
                <mxCell id="180" value="M" style="endArrow=none;html=1;rounded=0;exitX=1;exitY=0.5;exitDx=0;exitDy=0;entryX=0;entryY=0.5;entryDx=0;entryDy=0;" edge="1" parent="1" source="29" target="179">
                    <mxGeometry x="-0.2222" y="20" relative="1" as="geometry">
                        <mxPoint x="-2720" y="1410" as="sourcePoint"/>
                        <mxPoint x="-2530" y="1410" as="targetPoint"/>
                        <mxPoint as="offset"/>
                    </mxGeometry>
                </mxCell>
                <mxCell id="181" value="by" style="shape=rhombus;perimeter=rhombusPerimeter;whiteSpace=wrap;html=1;align=center;" vertex="1" parent="1">
                    <mxGeometry x="-1970" y="1370" width="120" height="60" as="geometry"/>
                </mxCell>
                <mxCell id="182" value="create" style="shape=rhombus;perimeter=rhombusPerimeter;whiteSpace=wrap;html=1;align=center;" vertex="1" parent="1">
                    <mxGeometry x="-1980" y="1114.18" width="120" height="60" as="geometry"/>
                </mxCell>
                <mxCell id="183" value="BookList" style="whiteSpace=wrap;html=1;align=center;" vertex="1" parent="1">
                    <mxGeometry x="-2230" y="1124.18" width="100" height="40" as="geometry"/>
                </mxCell>
                <mxCell id="184" value="has" style="shape=rhombus;perimeter=rhombusPerimeter;whiteSpace=wrap;html=1;align=center;" vertex="1" parent="1">
                    <mxGeometry x="-2520" y="1200" width="120" height="60" as="geometry"/>
                </mxCell>
                <mxCell id="185" value="Author" style="ellipse;whiteSpace=wrap;html=1;align=center;" vertex="1" parent="1">
                    <mxGeometry x="-3011" y="1350" width="100" height="40" as="geometry"/>
                </mxCell>
                <mxCell id="186" value="" style="endArrow=none;html=1;rounded=0;entryX=0;entryY=0.5;entryDx=0;entryDy=0;exitX=1;exitY=0.5;exitDx=0;exitDy=0;" edge="1" parent="1" source="185" target="3">
                    <mxGeometry relative="1" as="geometry">
                        <mxPoint x="-2738" y="1456.49" as="sourcePoint"/>
                        <mxPoint x="-2850" y="1516.49" as="targetPoint"/>
                    </mxGeometry>
                </mxCell>
                <mxCell id="187" value="" style="endArrow=none;html=1;rounded=0;entryX=0;entryY=1;entryDx=0;entryDy=0;exitX=1;exitY=0;exitDx=0;exitDy=0;" edge="1" parent="1" source="182" target="40">
                    <mxGeometry relative="1" as="geometry">
                        <mxPoint x="-2270" y="1080" as="sourcePoint"/>
                        <mxPoint x="-2110" y="1080" as="targetPoint"/>
                    </mxGeometry>
                </mxCell>
                <mxCell id="188" value="N" style="resizable=0;html=1;align=right;verticalAlign=bottom;" connectable="0" vertex="1" parent="187">
                    <mxGeometry x="1" relative="1" as="geometry">
                        <mxPoint x="-390" y="10" as="offset"/>
                    </mxGeometry>
                </mxCell>
                <mxCell id="189" value="" style="endArrow=none;html=1;rounded=0;exitX=1;exitY=0.5;exitDx=0;exitDy=0;" edge="1" parent="1" source="183" target="182">
                    <mxGeometry relative="1" as="geometry">
                        <mxPoint x="-1879.9999999999995" y="1139.18" as="sourcePoint"/>
                        <mxPoint x="-1389.9999999999995" y="920" as="targetPoint"/>
                    </mxGeometry>
                </mxCell>
                <mxCell id="190" value="1" style="resizable=0;html=1;align=right;verticalAlign=bottom;" connectable="0" vertex="1" parent="189">
                    <mxGeometry x="1" relative="1" as="geometry">
                        <mxPoint x="170" y="-68" as="offset"/>
                    </mxGeometry>
                </mxCell>
                <mxCell id="191" value="" style="endArrow=none;html=1;rounded=0;exitX=1;exitY=0;exitDx=0;exitDy=0;entryX=0;entryY=0.5;entryDx=0;entryDy=0;" edge="1" parent="1" source="184" target="183">
                    <mxGeometry relative="1" as="geometry">
                        <mxPoint x="-2120.0000000000005" y="1154.18" as="sourcePoint"/>
                        <mxPoint x="-1969.9999999999995" y="1154.18" as="targetPoint"/>
                    </mxGeometry>
                </mxCell>
                <mxCell id="192" value="M" style="resizable=0;html=1;align=right;verticalAlign=bottom;" connectable="0" vertex="1" parent="191">
                    <mxGeometry x="1" relative="1" as="geometry">
                        <mxPoint x="-120" y="30" as="offset"/>
                    </mxGeometry>
                </mxCell>
                <mxCell id="193" value="" style="endArrow=none;html=1;rounded=0;exitX=0.75;exitY=0;exitDx=0;exitDy=0;entryX=0;entryY=1;entryDx=0;entryDy=0;" edge="1" parent="1" source="3" target="184">
                    <mxGeometry relative="1" as="geometry">
                        <mxPoint x="-2420" y="1225" as="sourcePoint"/>
                        <mxPoint x="-2220" y="1154.18" as="targetPoint"/>
                    </mxGeometry>
                </mxCell>
                <mxCell id="194" value="N" style="resizable=0;html=1;align=right;verticalAlign=bottom;" connectable="0" vertex="1" parent="193">
                    <mxGeometry x="1" relative="1" as="geometry">
                        <mxPoint x="-120" y="45" as="offset"/>
                    </mxGeometry>
                </mxCell>
                <mxCell id="195" value="N" style="resizable=0;html=1;align=right;verticalAlign=bottom;" connectable="0" vertex="1" parent="1">
                    <mxGeometry x="-2040.0038095238092" y="1127.18" as="geometry">
                        <mxPoint x="3" y="5" as="offset"/>
                    </mxGeometry>
                </mxCell>
                <mxCell id="196" value="" style="endArrow=none;html=1;rounded=0;exitX=1;exitY=0.5;exitDx=0;exitDy=0;entryX=0;entryY=0.5;entryDx=0;entryDy=0;" edge="1" parent="1" source="179" target="181">
                    <mxGeometry relative="1" as="geometry">
                        <mxPoint x="-2120" y="1154.18" as="sourcePoint"/>
                        <mxPoint x="-1970" y="1154.18" as="targetPoint"/>
                    </mxGeometry>
                </mxCell>
                <mxCell id="197" value="N" style="resizable=0;html=1;align=right;verticalAlign=bottom;" connectable="0" vertex="1" parent="196">
                    <mxGeometry x="1" relative="1" as="geometry">
                        <mxPoint x="-40" y="-14" as="offset"/>
                    </mxGeometry>
                </mxCell>
                <mxCell id="198" value="" style="endArrow=none;html=1;rounded=0;entryX=0;entryY=1;entryDx=0;entryDy=0;exitX=1;exitY=0;exitDx=0;exitDy=0;" edge="1" parent="1" source="181" target="40">
                    <mxGeometry relative="1" as="geometry">
                        <mxPoint x="-1880" y="1139.18" as="sourcePoint"/>
                        <mxPoint x="-1390" y="920" as="targetPoint"/>
                    </mxGeometry>
                </mxCell>
                <mxCell id="200" value="M" style="resizable=0;html=1;align=right;verticalAlign=bottom;" connectable="0" vertex="1" parent="1">
                    <mxGeometry x="-1850" y="1336.3600000000001" as="geometry"/>
                </mxCell>
                <mxCell id="202" value="BookListId" style="ellipse;whiteSpace=wrap;html=1;align=center;fontStyle=4;" vertex="1" parent="1">
                    <mxGeometry x="-2230" y="974.18" width="100" height="40" as="geometry"/>
                </mxCell>
                <mxCell id="203" value="Status" style="ellipse;whiteSpace=wrap;html=1;align=center;" vertex="1" parent="1">
                    <mxGeometry x="-2320" y="1014.18" width="100" height="40" as="geometry"/>
                </mxCell>
                <mxCell id="204" value="" style="endArrow=none;html=1;rounded=0;exitX=0.5;exitY=1;exitDx=0;exitDy=0;entryX=0.5;entryY=0;entryDx=0;entryDy=0;" edge="1" parent="1" source="202">
                    <mxGeometry relative="1" as="geometry">
                        <mxPoint x="-2058" y="1164.1799999999998" as="sourcePoint"/>
                        <mxPoint x="-2180" y="1124.1799999999998" as="targetPoint"/>
                    </mxGeometry>
                </mxCell>
                <mxCell id="205" value="" style="endArrow=none;html=1;rounded=0;entryX=0.5;entryY=0;entryDx=0;entryDy=0;exitX=0.5;exitY=1;exitDx=0;exitDy=0;" edge="1" parent="1" source="203">
                    <mxGeometry relative="1" as="geometry">
                        <mxPoint x="-2068" y="1064.1799999999998" as="sourcePoint"/>
                        <mxPoint x="-2180" y="1124.1799999999998" as="targetPoint"/>
                    </mxGeometry>
                </mxCell>
                <mxCell id="210" value="PubDate" style="ellipse;whiteSpace=wrap;html=1;align=center;" vertex="1" parent="1">
                    <mxGeometry x="-3020" y="1406.4899999999998" width="100" height="40" as="geometry"/>
                </mxCell>
                <mxCell id="211" value="" style="endArrow=none;html=1;rounded=0;entryX=0;entryY=0.75;entryDx=0;entryDy=0;exitX=1;exitY=0.5;exitDx=0;exitDy=0;" edge="1" parent="1" source="210" target="3">
                    <mxGeometry relative="1" as="geometry">
                        <mxPoint x="-2728" y="1522.85" as="sourcePoint"/>
                        <mxPoint x="-2820" y="1466.36" as="targetPoint"/>
                    </mxGeometry>
                </mxCell>
                <mxCell id="212" value="ISBN" style="ellipse;whiteSpace=wrap;html=1;align=center;" vertex="1" parent="1">
                    <mxGeometry x="-2980" y="1460" width="100" height="40" as="geometry"/>
                </mxCell>
                <mxCell id="213" value="" style="endArrow=none;html=1;rounded=0;entryX=0;entryY=1;entryDx=0;entryDy=0;exitX=1;exitY=0;exitDx=0;exitDy=0;" edge="1" parent="1" source="212" target="3">
                    <mxGeometry relative="1" as="geometry">
                        <mxPoint x="-2910" y="1436.4899999999998" as="sourcePoint"/>
                        <mxPoint x="-2820" y="1430" as="targetPoint"/>
                    </mxGeometry>
                </mxCell>
                <mxCell id="214" value="RatingsId" style="ellipse;whiteSpace=wrap;html=1;align=center;fontStyle=4;" vertex="1" parent="1">
                    <mxGeometry x="-2310" y="1500" width="100" height="40" as="geometry"/>
                </mxCell>
                <mxCell id="215" value="" style="endArrow=none;html=1;rounded=0;exitX=1;exitY=0;exitDx=0;exitDy=0;entryX=0.451;entryY=1.019;entryDx=0;entryDy=0;entryPerimeter=0;" edge="1" parent="1" source="214" target="179">
                    <mxGeometry relative="1" as="geometry">
                        <mxPoint x="-2088" y="1616.36" as="sourcePoint"/>
                        <mxPoint x="-2210" y="1576.3599999999997" as="targetPoint"/>
                    </mxGeometry>
                </mxCell>
                <mxCell id="216" value="Rating" style="ellipse;whiteSpace=wrap;html=1;align=center;" vertex="1" parent="1">
                    <mxGeometry x="-2270" y="1550" width="100" height="40" as="geometry"/>
                </mxCell>
                <mxCell id="217" value="" style="endArrow=none;html=1;rounded=0;entryX=0.5;entryY=1;entryDx=0;entryDy=0;exitX=1;exitY=0;exitDx=0;exitDy=0;" edge="1" parent="1" source="216" target="179">
                    <mxGeometry relative="1" as="geometry">
                        <mxPoint x="-2170" y="1506.4899999999998" as="sourcePoint"/>
                        <mxPoint x="-2090" y="1490" as="targetPoint"/>
                    </mxGeometry>
                </mxCell>
                <mxCell id="218" value="Comment" style="ellipse;whiteSpace=wrap;html=1;align=center;" vertex="1" parent="1">
                    <mxGeometry x="-2210" y="1599" width="100" height="40" as="geometry"/>
                </mxCell>
                <mxCell id="219" value="" style="endArrow=none;html=1;rounded=0;exitX=1;exitY=0;exitDx=0;exitDy=0;entryX=0.5;entryY=1;entryDx=0;entryDy=0;" edge="1" parent="1" source="218" target="179">
                    <mxGeometry relative="1" as="geometry">
                        <mxPoint x="-2110" y="1556.4899999999998" as="sourcePoint"/>
                        <mxPoint x="-2160" y="1460" as="targetPoint"/>
                    </mxGeometry>
                </mxCell>
            </root>
        </mxGraphModel>
    </diagram>
</mxfile>